<?xml version="1.0" standalone="no"?><!DOCTYPE svg PUBLIC "-//W3C//DTD SVG 1.1//EN" "http://www.w3.org/Graphics/SVG/1.1/DTD/svg11.dtd"><svg t="1610458585385" class="icon" viewBox="0 0 1204 1024" version="1.1" xmlns="http://www.w3.org/2000/svg" p-id="8472" width="18.8125" height="16" xmlns:xlink="http://www.w3.org/1999/xlink"><defs><style type="text/css"></style></defs><path d="M576.191 186.291h314.077c25.592 0 46.527 20.936 46.527 46.528v58.159c0 25.592-20.935 46.527-46.527 46.527H576.19c-25.592 0-46.527-20.935-46.527-46.527v-58.16c-0.009-25.591 20.935-46.527 46.527-46.527z" fill="#EECA66" p-id="8473"></path><path d="M971.7 907.508H227.21c-51.184 0-93.063-41.88-93.063-93.063v-604.89c0-51.184 41.88-93.063 93.063-93.063h267.55c63.979 17.452 51.183 50.02 93.063 93.063l29.084 46.527h354.792c51.184 0 93.064 41.88 93.064 93.064v465.299c-0.009 51.184-41.889 93.063-93.064 93.063z" fill="#FFD659" p-id="8474"></path></svg>