<?xml version="1.0" standalone="no"?><!DOCTYPE svg PUBLIC "-//W3C//DTD SVG 1.1//EN" "http://www.w3.org/Graphics/SVG/1.1/DTD/svg11.dtd"><svg t="1610175307007" class="icon" viewBox="0 0 1024 1024" version="1.1" xmlns="http://www.w3.org/2000/svg" p-id="10197" width="128" height="128" xmlns:xlink="http://www.w3.org/1999/xlink"><defs><style type="text/css"></style></defs><path d="M22.858323 291.54271v566.965677c0 33.49471 27.482839 60.581161 61.44 60.581161h848.202322c34.023226 0 61.44-27.020387 61.44-60.581161V291.54271H22.858323z" fill="#F2F2F2" p-id="10198"></path><path d="M932.236387 112.045419H84.298323c-34.023226 0-61.44 27.416774-61.44 61.44v136.951742h971.148387V173.485419c-0.330323-33.957161-27.747097-61.44-61.770323-61.44z" fill="#EE732F" p-id="10199"></path><path d="M842.718968 210.944c0 12.486194 6.672516 23.981419 17.441032 30.257548 10.834581 6.210065 24.113548 6.210065 34.948129 0a34.954735 34.954735 0 0 0 0-60.515096 35.106684 35.106684 0 0 0-34.948129 0 34.816 34.816 0 0 0-17.441032 30.257548zM715.412645 210.944c0 12.486194 6.672516 23.981419 17.441032 30.257548 10.834581 6.210065 24.113548 6.210065 34.948129 0a34.954735 34.954735 0 0 0 0-60.515096 35.106684 35.106684 0 0 0-34.948129 0 34.954735 34.954735 0 0 0-17.441032 30.257548zM588.436645 210.944c0 12.486194 6.672516 23.981419 17.441032 30.257548 10.834581 6.210065 24.113548 6.210065 34.948129 0a34.954735 34.954735 0 0 0 0-60.515096 35.106684 35.106684 0 0 0-34.948129 0 34.954735 34.954735 0 0 0-17.441032 30.257548z" fill="#FFFFFF" p-id="10200"></path><path d="M377.030194 730.475355l-37.392517-37.392516 92.358194-93.811613-92.358194-93.811613 37.392517-37.326452 131.138064 131.138065zM694.338065 730.475355H514.510452v-53.248H693.677419z" fill="#324A5E" p-id="10201"></path></svg>