<?xml version="1.0" standalone="no"?><!DOCTYPE svg PUBLIC "-//W3C//DTD SVG 1.1//EN" "http://www.w3.org/Graphics/SVG/1.1/DTD/svg11.dtd"><svg t="1610174555266" class="icon" viewBox="0 0 1024 1024" version="1.1" xmlns="http://www.w3.org/2000/svg" p-id="4519" xmlns:xlink="http://www.w3.org/1999/xlink" width="16" height="16"><defs><style type="text/css"></style></defs><path d="M42.827294 349.123765a11.926588 11.926588 0 0 0-11.866353 11.866353v615.725176c0 6.565647 5.360941 11.926588 11.866353 11.926588H981.232941a11.926588 11.926588 0 0 0 11.866353-11.926588V360.990118a11.926588 11.926588 0 0 0-11.866353-11.866353H42.767059z" fill="#0BBA6E" p-id="4520"></path><path d="M253.229176 320.512c0-140.830118 115.892706-254.976 258.770824-254.976 142.878118 0 258.770824 114.145882 258.770824 254.976 0 30.599529-5.722353 59.753412-15.661177 86.859294h64.210824c7.830588-27.587765 12.288-56.741647 12.288-86.859294a319.608471 319.608471 0 1 0-639.216942 0c0 30.117647 4.517647 59.271529 12.288 86.859294h64.210824a251.482353 251.482353 0 0 1-15.661177-86.859294z" fill="#0BBA6E" p-id="4521"></path><path d="M479.292235 593.739294c0-13.071059 10.721882-23.792941 23.792941-23.792941h17.829648c13.071059 0 23.792941 10.721882 23.792941 23.792941v180.585412a23.853176 23.853176 0 0 1-23.792941 23.792941h-17.829648a23.853176 23.853176 0 0 1-23.792941-23.792941V593.739294z" fill="#FFFFFF" p-id="4522"></path></svg>