<svg t="1610458485294" class="icon" viewBox="0 0 1024 1024" version="1.1" xmlns="http://www.w3.org/2000/svg" p-id="6763" width="16" height="16"><path d="M1024 511.487487c0 282.906907-229.605606 511.487487-511.487487 511.487488S0 794.394394 0 511.487487 229.605606 0 511.487487 0c282.906907 0 512.512513 229.605606 512.512513 511.487487z" fill="#DD4814" p-id="6764"></path><path d="M164.004004 443.835836a68.676677 68.676677 0 1 0 68.676677 68.676677c0-37.925926-30.750751-68.676677-68.676677-68.676677z m487.911912 310.582582c-32.800801 18.45045-44.076076 60.476476-24.600601 93.277278 18.45045 32.800801 60.476476 44.076076 93.277278 24.6006 32.800801-18.45045 44.076076-60.476476 24.6006-93.277277-19.475475-32.800801-60.476476-44.076076-93.277277-24.600601zM312.632633 511.487487c0-64.576577 31.775776-126.078078 85.077077-162.978978l-50.226227-83.027028c-60.476476 39.975976-104.552553 101.477477-123.003003 172.204205 41.001001 33.825826 47.151151 94.302302 14.350351 135.303303-4.1001 5.125125-9.225225 9.225225-14.350351 14.35035 18.45045 70.726727 62.526527 132.228228 123.003003 172.204205l50.226227-84.052053c-53.301301-37.925926-85.077077-98.402402-85.077077-164.004004z m198.854854-198.854854c103.527528 0 189.62963 78.926927 198.854855 182.454454l97.377378-1.025025c-5.125125-72.776777-35.875876-141.453453-88.152152-192.704705-49.201201 18.45045-104.552553-6.15015-124.028028-55.351351-2.05005-6.15015-4.1001-12.3003-5.125126-18.45045-70.726727-19.475475-145.553554-12.3003-211.155155 20.5005l47.151151 85.077077c27.675676-14.35035 56.376376-20.500501 85.077077-20.5005z m0 398.734734c-28.700701 0-57.401401-6.15015-84.052052-18.45045l-47.151151 85.077077c65.601602 32.800801 140.428428 39.975976 211.155155 20.5005 8.2002-52.276276 57.401401-88.152152 109.677678-78.926926 6.15015 1.025025 12.3003 3.075075 18.450451 5.125125 52.276276-51.251251 83.027027-119.927928 88.152152-192.704705l-97.377378-1.025025c-9.225225 101.477477-95.327327 180.404404-198.854855 180.404404z m140.428429-441.785785c32.800801 18.45045 74.826827 7.175175 93.277277-24.600601 18.45045-32.800801 7.175175-74.826827-24.6006-93.277277-33.825826-19.475475-74.826827-8.2002-94.302303 24.6006-18.45045 32.800801-7.175175 74.826827 25.625626 93.277278z" fill="#FFFFFF" p-id="6765"></path></svg>